<svg width="222" height="222" viewBox="0 -31 222 222" fill="none" xmlns="http://www.w3.org/2000/svg">
<path d="M10.0122 159.083C6.86022 159.083 4.35717 158.249 2.50305 156.58C0.834352 154.911 0 152.964 0 150.74C0 148.515 0.834352 146.568 2.50305 144.899C4.35717 143.23 6.86022 142.396 10.0122 142.396H69.5293C72.6813 142.396 75.0916 143.23 76.7603 144.899C78.6145 146.568 79.5415 148.515 79.5415 150.74C79.5415 152.964 78.6145 154.911 76.7603 156.58C75.0916 158.249 72.6813 159.083 69.5293 159.083H10.0122ZM152.408 159.083C149.256 159.083 146.753 158.249 144.899 156.58C143.23 154.911 142.396 152.964 142.396 150.74C142.396 148.515 143.23 146.568 144.899 144.899C146.753 143.23 149.256 142.396 152.408 142.396H211.925C215.077 142.396 217.488 143.23 219.156 144.899C221.01 146.568 221.938 148.515 221.938 150.74C221.938 152.964 221.01 154.911 219.156 156.58C217.488 158.249 215.077 159.083 211.925 159.083H152.408ZM10.0122 123.484C6.86022 123.484 4.35717 122.65 2.50305 120.981C0.834352 119.312 0 117.365 0 115.141C0 112.916 0.834352 110.969 2.50305 109.3C4.35717 107.631 6.86022 106.797 10.0122 106.797H69.5293C72.6813 106.797 75.0916 107.631 76.7603 109.3C78.6145 110.969 79.5415 112.916 79.5415 115.141C79.5415 117.365 78.6145 119.312 76.7603 120.981C75.0916 122.65 72.6813 123.484 69.5293 123.484H10.0122ZM152.408 123.484C149.256 123.484 146.753 122.65 144.899 120.981C143.23 119.312 142.396 117.365 142.396 115.141C142.396 112.916 143.23 110.969 144.899 109.3C146.753 107.631 149.256 106.797 152.408 106.797H211.925C215.077 106.797 217.488 107.631 219.156 109.3C221.01 110.969 221.938 112.916 221.938 115.141C221.938 117.365 221.01 119.312 219.156 120.981C217.488 122.65 215.077 123.484 211.925 123.484H152.408ZM10.0122 87.885C6.86022 87.885 4.35717 87.0507 2.50305 85.382C0.834352 83.7133 0 81.7665 0 79.5415C0 77.3166 0.834352 75.3698 2.50305 73.7011C4.35717 72.0323 6.86022 71.198 10.0122 71.198H69.5293C72.6813 71.198 75.0916 72.0323 76.7603 73.7011C78.6145 75.3698 79.5415 77.3166 79.5415 79.5415C79.5415 81.7665 78.6145 83.7133 76.7603 85.382C75.0916 87.0507 72.6813 87.885 69.5293 87.885H10.0122ZM152.408 87.885C149.256 87.885 146.753 87.0507 144.899 85.382C143.23 83.7133 142.396 81.7665 142.396 79.5415C142.396 77.3166 143.23 75.3698 144.899 73.7011C146.753 72.0323 149.256 71.198 152.408 71.198H211.925C215.077 71.198 217.488 72.0323 219.156 73.7011C221.01 75.3698 221.938 77.3166 221.938 79.5415C221.938 81.7665 221.01 83.7133 219.156 85.382C217.488 87.0507 215.077 87.885 211.925 87.885H152.408ZM10.0122 52.286C6.86022 52.286 4.35717 51.4517 2.50305 49.783C0.834352 48.1143 0 46.1675 0 43.9425C0 41.7176 0.834352 39.7708 2.50305 38.1021C4.35717 36.4334 6.86022 35.599 10.0122 35.599H69.5293C72.6813 35.599 75.0916 36.4334 76.7603 38.1021C78.6145 39.7708 79.5415 41.7176 79.5415 43.9425C79.5415 46.1675 78.6145 48.1143 76.7603 49.783C75.0916 51.4517 72.6813 52.286 69.5293 52.286H10.0122ZM152.408 52.286C149.256 52.286 146.753 51.4517 144.899 49.783C143.23 48.1143 142.396 46.1675 142.396 43.9425C142.396 41.7176 143.23 39.7708 144.899 38.1021C146.753 36.4334 149.256 35.599 152.408 35.599H211.925C215.077 35.599 217.488 36.4334 219.156 38.1021C221.01 39.7708 221.938 41.7176 221.938 43.9425C221.938 46.1675 221.01 48.1143 219.156 49.783C217.488 51.4517 215.077 52.286 211.925 52.286H152.408ZM10.0122 16.687C6.86022 16.687 4.35717 15.8527 2.50305 14.184C0.834352 12.5153 0 10.5685 0 8.34352C0 6.11858 0.834352 4.17176 2.50305 2.50305C4.35717 0.834352 6.86022 0 10.0122 0H176.326C179.478 0 181.889 0.834352 183.557 2.50305C185.411 4.17176 186.339 6.11858 186.339 8.34352C186.339 10.5685 185.411 12.5153 183.557 14.184C181.889 15.8527 179.478 16.687 176.326 16.687H10.0122Z" />
<style>
  path { fill: #1A1A1A; }
  @media (prefers-color-scheme: dark) {
    path { fill: #EDEDE8; }
  }
</style>
</svg>
